<?xml version="1.0" standalone="no"?><!DOCTYPE svg PUBLIC "-//W3C//DTD SVG 1.1//EN" "http://www.w3.org/Graphics/SVG/1.1/DTD/svg11.dtd"><svg t="1595387857584" class="icon" viewBox="0 0 1024 1024" version="1.1" xmlns="http://www.w3.org/2000/svg" p-id="7908" xmlns:xlink="http://www.w3.org/1999/xlink" width="400" height="400"><defs><style type="text/css"></style></defs><path d="M586.10176 298.88256c-10.01088 0-18.13504-8.11904-18.13504-18.13376V63.14624H259.69792c-20.02816 0-36.26752 16.2304-36.26752 36.26624v187.8336c1.07136 0.82432 1.97888 1.82528 2.59456 3.01184l0.05376-0.02688 87.46624 165.1584-0.05376 0.03456c1.01376 1.95712 1.39392 4.25984 0.77824 6.56128-1.29664 4.8704-6.26432 7.75552-11.10784 6.45376-2.54592-0.68992-4.49792-2.4256-5.63072-4.60416l-0.05376 0.03584-74.048-139.82592v13.14816l121.38752 211.30624a9.18272 9.18272 0 0 1 0.90752 6.92352c-0.65536 2.43456-2.27584 4.2688-4.29824 5.41184l0.07168 0.12288-3.25376 1.888 202.51392 352.576h226.67776c5.01632 0 9.78432-1.0112 14.1184-2.85312 13.02016-5.50784 22.14912-18.39872 22.14912-33.41568V298.88256H586.10176z m18.13248-210.09408v173.82656H778.0608L604.23424 88.78848z m-318.2976 504.41728a9.01248 9.01248 0 0 1-6.88 0.91264 9.09568 9.09568 0 0 1-5.5168-4.2496l-50.11072-87.24096v376.52608c0 20.03712 16.23936 36.2688 36.26752 36.2688h215.66208L289.1904 591.3216l-3.25376 1.88416z" fill="#FFFFFF" p-id="7909"></path><path d="M640.5056 125.056l-7.5072-7.50848h-10.62528v18.13376h18.13248V125.056z m-25.64352-25.64224h-10.62528v18.13376h18.13504v-10.62528l-7.50976-7.50848z m116.31104 126.93376v-10.62528l-7.5072-7.50848h-10.62528v18.13376h18.13248z m-72.53376-54.4h-18.13376v18.13376h18.13376v-18.13376z m18.13248 18.13376h-18.13248v18.13376h18.13248v-18.13376z m0 72.53376h18.13376v-18.13376h-18.13376v18.13376z m-72.53376 0h18.13504v-18.13376h-18.13504v18.13376z m36.26752 0h18.13376v-18.13376h-18.13376v18.13376z m0-72.53376h-18.13248v18.13376h18.13248v-18.13376z m-36.26752-36.26752h18.13504V135.68h-18.13504v18.13376z m0 72.53376h18.13504v-18.13376h-18.13504v18.13376z m0-36.26624h18.13504v-18.13376h-18.13504v18.13376z m108.80256 72.53376h18.13248v-18.13376h-18.13248v18.13376z m-54.40128-108.80128v-10.62528L651.13088 135.68h-10.62528v18.13376h18.13376z m-18.13376 72.53376h18.13376v-18.13376h-18.13376v18.13376z m36.26624-54.4v-10.62528l-7.5072-7.50848h-10.62528v18.13376h18.13248z m-36.26624-18.13376h-18.13248v18.13376h18.13248v-18.13376z m54.4 90.6688h18.13504v-18.13376h-18.13504v18.13376z m-72.53248 0h18.13248v-18.13376h-18.13248v18.13376z m36.26624 0h18.13248v-18.13376h-18.13248v18.13376z m18.13248-18.13504h18.13376v-18.13376h-18.13376v18.13376z m83.15904 18.13504h-10.62528v18.13376h18.13248v-10.62528l-7.5072-7.50848z m-46.89024-36.26752v-10.62528l-7.50976-7.50848h-10.62528v18.13376h18.13504z m28.75648 18.13248h-10.62528v18.13376h18.13376V233.856l-7.50848-7.50848z m-46.89152-36.26624V179.456l-7.50848-7.50848h-10.62528v18.13376h18.13376z" fill="" p-id="7910"></path><path d="M459.17056 171.94752H295.968v18.13376h163.20128v-18.13376z m-163.20256 72.53504H495.4368v-18.13376H295.968v18.13376z" fill="#86AEDD" p-id="7911"></path><path d="M295.968 806.62016v18.13504h127.3152l-10.41664-18.13504h-116.89856z m290.1376-163.20128H384.51584l10.41664 18.13504h191.17312v-18.13504zM488.68096 824.7552h242.49088v-18.13504H478.26432l10.41664 18.13504zM319.12576 643.41888h-23.15776v18.13504h33.56672l-10.40896-18.13504z m-23.15776-40.30464v4.0384h2.32064l-2.32064-4.0384z m67.72224 4.0384h367.4816V589.0176H353.26848l10.42176 18.13504z m-56.20736-163.20256h423.68896V425.8176H297.8816l9.60128 18.13248z m8.52224 54.4h415.16672V480.2176H305.58848l10.41664 18.13248z m28.80768 50.16064c0.73088 1.26592 1.02272 2.73536 1.0752 4.24064h385.28384v-18.13248H336.83968l7.97312 13.89184z m-48.8448-158.96064h435.20384v-18.13376H295.968v18.13376z" fill="" p-id="7912"></path><path d="M731.34848 728.59776L718.52928 715.776l-23.62752 23.6224-23.61984-23.6224-12.82048 12.82176 23.61856 23.6224-23.61856 23.6224 12.82048 12.82304 23.61984-23.616 23.62752 23.616 12.8192-12.82304-23.61728-23.6224z" fill="#EE6A56" p-id="7913"></path><path d="M834.65984 267.91936L598.9248 32.192A18.07104 18.07104 0 0 0 586.10432 26.88H259.70176c-40.05632 0-72.53376 32.47744-72.53376 72.53376v174.64064l-9.14688-15.92832a9.11872 9.11872 0 0 0-5.50656-4.24064 9.03296 9.03296 0 0 0-6.88896 0.90368l-55.552 32.24704a9.13024 9.13024 0 0 0-4.2368 5.53344 9.18784 9.18784 0 0 0 0.90624 6.92352l80.42368 139.99488v439.66592c0 40.05632 32.47744 72.53504 72.53376 72.53504h236.48768l6.58432 11.44704c0.60672 1.0624 1.45152 1.96736 2.43968 2.71872l-0.01792 0.03456 39.1232 29.40544 0.04352-0.06144c0.89856 0.68096 1.88544 1.26592 3.03744 1.568 4.84224 1.31072 9.82016-1.57568 11.1168-6.44608 0.30848-1.15072 0.3456-2.3104 0.20736-3.43552h0.03456l-0.01664-0.16896s0-0.00768-0.01024-0.00768l-4.15232-35.05536h212.86016c40.0576 0 72.53504-32.47872 72.53504-72.53504V280.7488a18.0864 18.0864 0 0 0-5.31328-12.82944M604.23808 88.78848l173.82656 173.82656H604.23808V88.78848zM259.70176 915.42272c-20.02816 0-36.26624-16.24064-36.26624-36.2688V502.62784l50.11072 87.24096a9.0176 9.0176 0 0 0 5.50272 4.24064 9.03424 9.03424 0 0 0 6.8928-0.90368l3.25376-1.8944 186.1696 324.11136H259.70176z m544.00512-36.2688c0 20.02816-16.23808 36.2688-36.26752 36.2688H540.7616L338.23872 562.85312l3.25376-1.88672-0.07168-0.13184c2.01984-1.14304 3.65312-2.976 4.2944-5.41184a9.04448 9.04448 0 0 0-0.90368-6.91328l-121.37856-211.32544v-13.13152l74.048 139.81696 0.05376-0.02688c1.1328 2.1696 3.08608 3.90528 5.62304 4.5952 4.84352 1.30176 9.81888-1.58464 11.1168-6.44608 0.61568-2.30272 0.23552-4.62208-0.7872-6.5792l0.05248-0.0256-87.45728-165.1584-0.05376 0.02688c-0.62848-1.18656-1.52192-2.19648-2.59328-3.01952V99.41376c0-20.02816 16.23936-36.26624 36.26624-36.26624h308.27008v217.60256c0 10.01344 8.1152 18.13376 18.13376 18.13376h217.60128v580.27008z" fill="" p-id="7914"></path></svg>